<?xml version="1.0" encoding="utf-8"?>
<!-- Generator: Adobe Illustrator 21.0.0, SVG Export Plug-In . SVG Version: 6.00 Build 0)  -->
<svg version="1.1" id="Ebene_1" xmlns="http://www.w3.org/2000/svg" xmlns:xlink="http://www.w3.org/1999/xlink" x="0px" y="0px"
	 viewBox="0 0 531.8 140.5" style="enable-background:new 0 0 531.8 140.5;" xml:space="preserve">
<style type="text/css">
	.st0{fill:#00FF80;}
</style>
<g>
	<rect class="st0" width="33" height="140.5"/>
	<g>
		<path d="M24.7,55c-2.2,0-4.4-0.2-6.6-0.6c-2.2-0.4-4.2-1-6.2-1.7c-1.9-0.7-3.6-1.6-4.9-2.6l3.7-8.2c2.1,1.4,4.4,2.5,6.9,3.2
			c2.4,0.7,4.8,1.1,7.3,1.1c2.5,0,4.4-0.4,5.7-1.1c1.3-0.7,2-1.7,2-2.9c0-0.7-0.2-1.3-0.7-1.9c-0.5-0.6-1.3-1.1-2.5-1.5
			c-1.2-0.5-3-1-5.3-1.5c-3.2-0.6-5.8-1.4-7.9-2.2c-2.1-0.8-3.7-1.8-4.9-2.9c-1.2-1.1-2-2.3-2.5-3.7C8.2,27.2,8,25.6,8,24
			c0-2.7,0.8-5.1,2.3-7.3c1.5-2.1,3.7-3.8,6.4-5.1c2.7-1.2,5.9-1.9,9.5-1.9c2.1,0,4.2,0.2,6.3,0.6c2.1,0.4,4,1,5.7,1.7
			c1.8,0.7,3.2,1.6,4.3,2.6l-3.6,8.2c-2-1.4-4.1-2.5-6.2-3.2c-2.1-0.7-4.3-1.1-6.4-1.1c-2.1,0-3.8,0.4-5.1,1.2
			c-1.3,0.8-1.9,1.9-1.9,3.3c0,0.7,0.2,1.3,0.7,1.8c0.4,0.5,1.3,1,2.5,1.5c1.2,0.5,3.1,1,5.6,1.5c3.1,0.6,5.6,1.4,7.7,2.2
			c2,0.9,3.7,1.9,4.8,2.9c1.2,1.1,2,2.3,2.5,3.7c0.5,1.3,0.7,2.8,0.7,4.4c0,2.9-0.7,5.3-2.2,7.4c-1.5,2.1-3.7,3.7-6.5,4.8
			C32.3,54.5,28.8,55,24.7,55z"/>
		<path d="M71.4,55c-4.5,0-8.5-0.9-11.8-2.8c-3.3-1.9-5.9-4.5-7.7-7.9c-1.8-3.4-2.7-7.4-2.7-12c0-4.6,0.9-8.6,2.7-12
			c1.8-3.4,4.4-6,7.7-7.8c3.3-1.8,7.2-2.8,11.8-2.8c4.5,0,8.5,0.9,11.7,2.8c3.3,1.8,5.8,4.5,7.6,7.8c1.8,3.4,2.7,7.4,2.7,12
			c0,4.6-0.9,8.6-2.7,12c-1.8,3.4-4.3,6-7.6,7.9C79.9,54.1,76,55,71.4,55z M71.4,46.1c3.2,0,5.8-1.2,7.7-3.5
			c1.9-2.3,2.9-5.8,2.9-10.4c0-4.5-1-8-2.9-10.3s-4.5-3.4-7.7-3.4c-3.2,0-5.8,1.1-7.7,3.4c-1.9,2.3-2.9,5.7-2.9,10.3
			c0,4.6,1,8.1,2.9,10.4C65.6,45,68.2,46.1,71.4,46.1z"/>
		<path d="M100.3,54.5V10.3h21c5.1,0,9.1,1.2,11.8,3.7c2.7,2.4,4.1,5.7,4.1,9.8c0,4.1-1.4,7.4-4.2,9.8c-2.8,2.4-6.7,3.7-11.7,3.7
			H112v17.2H100.3z M112,28.5h7.8c2.3,0,3.9-0.4,5-1.2c1.1-0.8,1.6-2,1.6-3.4c0-1.6-0.5-2.8-1.5-3.6c-1-0.8-2.7-1.2-5-1.2H112V28.5z
			"/>
		<path d="M142.8,54.5V10.3h11.4v44.1H142.8z M146.2,36.6v-9.1h32.7v9.1H146.2z M172,54.5V10.3h11.4v44.1H172z"/>
		<path d="M192.4,54.5V10.3H204v44.1H192.4z"/>
		<path d="M213.3,54.5V10.3h31.5v8.9h-20.1v8.3h18.8v8.9h-18.8v9.1h20.1v8.9H213.3z"/>
		<path d="M10.8,128.9V84.7H13l30.6,41.5l-1.4-0.1V84.7h2.4v44.1h-2.1L11.9,87.4l1.3,0.1v41.4H10.8z"/>
		<path d="M67.8,129.3c-2.8,0-5.2-0.7-7.3-2c-2.1-1.3-3.7-3.2-4.8-5.6c-1.2-2.4-1.7-5.3-1.7-8.5c0-3.2,0.6-6,1.7-8.5
			c1.2-2.4,2.8-4.3,4.8-5.6c2.1-1.3,4.5-2,7.3-2c2.8,0,5.2,0.7,7.3,2c2.1,1.3,3.7,3.2,4.8,5.6c1.1,2.4,1.7,5.2,1.7,8.5
			c0,3.3-0.6,6.1-1.7,8.5c-1.1,2.4-2.7,4.3-4.8,5.6C72.9,128.6,70.5,129.3,67.8,129.3z M67.7,126.7c3.5,0,6.2-1.2,8.2-3.5
			c1.9-2.3,2.9-5.7,2.9-10.1c0-4.2-1-7.5-2.9-9.9c-1.9-2.4-4.6-3.6-8.1-3.6c-3.4,0-6.1,1.2-8.1,3.6c-2,2.4-2.9,5.7-2.9,9.9
			c0,4.4,1,7.7,2.9,10.1C61.5,125.6,64.2,126.7,67.7,126.7z"/>
		<path d="M85.4,100.1v-2.2h18.2v2.2H85.4z M103.5,126.2v2.5c-0.6,0.2-1.2,0.3-1.8,0.4c-0.6,0.1-1.3,0.1-2,0.1c-2.4,0-4.3-0.7-5.8-2
			c-1.5-1.3-2.3-3.5-2.3-6.5V89.4l2.6-1.1v31.6c0,1.9,0.2,3.3,0.7,4.3s1.2,1.7,2,2c0.9,0.4,1.9,0.6,3,0.6c0.7,0,1.3,0,1.8-0.1
			C102.3,126.5,102.9,126.4,103.5,126.2z"/>
		<path d="M110.5,128.9V83.2h2.5v20.8l-0.6,1.2c0.7-2.7,2.1-4.7,4.2-6.1c2.1-1.4,4.5-2,7.2-2c7.5,0,11.3,3.9,11.3,11.8v20h-2.6
			v-19.7c0-3.3-0.7-5.7-2-7.2c-1.3-1.5-3.5-2.3-6.4-2.3c-3.3,0-6,1-8,3c-2,2-3,4.8-3,8.2v18H110.5z"/>
		<path d="M145.8,128.9v-22.4c0-1.4,0-2.8-0.1-4.3c-0.1-1.4-0.2-2.9-0.4-4.3h2.5l0.5,6.6l-0.6,0.7c0.7-2.7,2.1-4.7,4.2-6.1
			c2.1-1.4,4.5-2,7.2-2c7.5,0,11.3,3.9,11.3,11.8v20h-2.6v-19.7c0-3.3-0.7-5.7-2-7.2c-1.3-1.5-3.5-2.3-6.4-2.3c-3.3,0-6,1-8,3
			c-2,2-3,4.8-3,8.2v18H145.8z"/>
		<path d="M180.5,85.5h4v4h-4V85.5z M181.2,128.9v-31h2.5v31H181.2z"/>
		<path d="M206.8,129.3c-2.9,0-5.4-0.7-7.5-2c-2.1-1.3-3.8-3.2-4.9-5.6c-1.2-2.4-1.8-5.2-1.8-8.4c0-3.2,0.6-6.1,1.8-8.5
			c1.2-2.4,2.8-4.3,5-5.7c2.1-1.3,4.6-2,7.5-2c2,0,4,0.4,5.9,1.1c1.9,0.7,3.4,1.8,4.7,3l-1.2,2.2c-1.7-1.4-3.3-2.4-4.7-3
			c-1.4-0.6-3-0.9-4.6-0.9c-3.5,0-6.3,1.2-8.4,3.7c-2.1,2.5-3.1,5.8-3.1,10.1c0,4.2,1,7.5,3.1,9.9c2,2.4,4.8,3.5,8.3,3.5
			c1.6,0,3.2-0.3,4.6-0.9c1.5-0.6,3-1.6,4.7-2.9l1.2,2.2c-1.3,1.3-2.9,2.3-4.8,3.1C210.7,128.9,208.7,129.3,206.8,129.3z"/>
		<path d="M224.9,128.9V83.2h2.5v45.6H224.9z M245.5,128.9L226.8,113l17-15.1h3.7L229,114l0.1-2.5l20.3,17.3H245.5z"/>
		<path d="M252.8,113.5v-2.4h16.5v2.4H252.8z"/>
		<path d="M280.1,128.9V84.7h2.2l19,43.2h-1.8l18.8-43.2h2.2v44.1h-2.5l0.1-41.7l1.7,0.1l-18.4,41.6h-2.1l-18.7-41.7l1.9-0.1
			l0.1,41.7H280.1z"/>
		<path d="M343.8,129.3c-2.8,0-5.2-0.7-7.3-2c-2.1-1.3-3.7-3.2-4.8-5.6c-1.2-2.4-1.7-5.3-1.7-8.5c0-3.2,0.6-6,1.7-8.5
			c1.2-2.4,2.8-4.3,4.8-5.6c2.1-1.3,4.5-2,7.3-2c2.8,0,5.2,0.7,7.3,2c2.1,1.3,3.7,3.2,4.8,5.6c1.1,2.4,1.7,5.2,1.7,8.5
			c0,3.3-0.6,6.1-1.7,8.5c-1.1,2.4-2.7,4.3-4.8,5.6C349,128.6,346.6,129.3,343.8,129.3z M343.8,126.7c3.5,0,6.2-1.2,8.2-3.5
			c1.9-2.3,2.9-5.7,2.9-10.1c0-4.2-1-7.5-2.9-9.9c-1.9-2.4-4.6-3.6-8.1-3.6s-6.1,1.2-8.1,3.6c-2,2.4-2.9,5.7-2.9,9.9
			c0,4.4,1,7.7,2.9,10.1C337.6,125.6,340.3,126.7,343.8,126.7z"/>
		<path d="M377.1,129.3c-3.6,0-6.3-1-8.2-3c-1.8-2-2.8-4.9-2.8-8.8V97.9h2.5v19.3c0,3.3,0.7,5.7,2,7.3c1.3,1.5,3.4,2.3,6.2,2.3
			c3.3,0,5.9-1,7.8-3.1c2-2,2.9-4.8,2.9-8.2V97.9h2.5v31h-2.5v-7l0.7-0.7c-0.8,2.7-2.3,4.7-4.3,6.1
			C382.1,128.6,379.7,129.3,377.1,129.3z"/>
		<path d="M410.9,129.3c-4.8,0-8.7-1.4-11.5-4.2l1.2-2.2c1.7,1.4,3.3,2.3,4.9,2.9c1.6,0.6,3.5,0.9,5.7,0.9c2.8,0,4.9-0.5,6.4-1.5
			c1.4-1,2.1-2.4,2.1-4.2c0-1.5-0.5-2.7-1.4-3.6c-1-0.9-2.5-1.6-4.6-2.1l-5.3-1.2c-2.4-0.5-4.3-1.5-5.7-3c-1.4-1.5-2.1-3.2-2.1-5.1
			c0-1.8,0.5-3.3,1.4-4.6c0.9-1.3,2.2-2.3,3.8-3.1c1.7-0.7,3.6-1.1,5.9-1.1c2.1,0,4.1,0.4,6,1.1c1.9,0.7,3.4,1.7,4.5,3.1l-1.2,2.2
			c-1.4-1.3-2.8-2.2-4.3-2.9c-1.5-0.6-3.1-1-4.9-1c-2.6,0-4.6,0.5-6,1.6s-2.1,2.5-2.1,4.3c0,1.6,0.5,2.8,1.4,3.8
			c0.9,1,2.3,1.7,4.2,2.1l5.3,1.3c2.7,0.6,4.8,1.6,6.1,3c1.4,1.4,2,3.1,2,5.1c0,2.5-1,4.6-3.1,6.1
			C417.2,128.5,414.4,129.3,410.9,129.3z"/>
		<path d="M426.4,100.1v-2.2h18.2v2.2H426.4z M444.5,126.2v2.5c-0.6,0.2-1.2,0.3-1.8,0.4c-0.6,0.1-1.3,0.1-2,0.1
			c-2.4,0-4.3-0.7-5.8-2c-1.5-1.3-2.3-3.5-2.3-6.5V89.4l2.6-1.1v31.6c0,1.9,0.2,3.3,0.7,4.3s1.2,1.7,2,2s1.9,0.6,3,0.6
			c0.7,0,1.3,0,1.8-0.1C443.3,126.5,443.8,126.4,444.5,126.2z"/>
		<path d="M463.2,129.3c-2.8,0-5.2-0.7-7.3-2c-2.1-1.3-3.7-3.2-4.8-5.5s-1.7-5.2-1.7-8.5s0.6-6.1,1.7-8.5c1.2-2.4,2.8-4.3,4.8-5.6
			c2.1-1.3,4.5-2,7.3-2c3,0,5.5,0.7,7.5,2.2c2,1.5,3.4,3.7,4.1,6.5l-0.7,0.6v-8.6h2.6v31h-2.6v-8.9l0.7,0.5
			c-0.7,2.9-2.1,5.1-4.1,6.6C468.7,128.5,466.2,129.3,463.2,129.3z M463.3,126.7c3.5,0,6.1-1.2,8-3.6s2.8-5.7,2.8-10
			c0-4.3-1-7.7-2.9-10c-1.9-2.3-4.6-3.5-8.1-3.5c-3.4,0-6.1,1.2-8.1,3.6c-2,2.4-2.9,5.7-2.9,10s1,7.6,2.9,10
			C457.1,125.6,459.8,126.7,463.3,126.7z"/>
		<path d="M482.7,100.1v-2.2h17v2.2H482.7z M500.3,86c-1.1-0.3-2.2-0.5-3.3-0.5c-1.1,0-2,0.2-2.9,0.5c-0.8,0.4-1.5,1-2,2
			c-0.5,1-0.7,2.4-0.7,4.3v36.5h-2.6V91.5c0-3,0.7-5.2,2.2-6.5c1.5-1.3,3.4-2,5.7-2c0.6,0,1.2,0,1.8,0.1c0.6,0.1,1.2,0.2,1.8,0.4V86
			z"/>
		<path d="M518.3,129.3c-2.8,0-5.2-0.7-7.3-2c-2.1-1.3-3.7-3.2-4.8-5.5s-1.7-5.2-1.7-8.5s0.6-6.1,1.7-8.5c1.2-2.4,2.8-4.3,4.8-5.6
			c2.1-1.3,4.5-2,7.3-2c3,0,5.5,0.7,7.5,2.2c2,1.5,3.4,3.7,4.1,6.5l-0.7,0.6v-8.6h2.6v31h-2.6v-8.9l0.7,0.5
			c-0.7,2.9-2.1,5.1-4.1,6.6C523.8,128.5,521.3,129.3,518.3,129.3z M518.4,126.7c3.5,0,6.1-1.2,8-3.6s2.8-5.7,2.8-10
			c0-4.3-1-7.7-2.9-10c-1.9-2.3-4.6-3.5-8.1-3.5c-3.4,0-6.1,1.2-8.1,3.6c-2,2.4-2.9,5.7-2.9,10s1,7.6,2.9,10
			C512.2,125.6,514.9,126.7,518.4,126.7z"/>
	</g>
</g>
</svg>
