<?xml version="1.0" encoding="utf-8"?>
<!-- Generator: Adobe Illustrator 21.0.0, SVG Export Plug-In . SVG Version: 6.00 Build 0)  -->
<svg version="1.1" id="Ebene_1" xmlns="http://www.w3.org/2000/svg" xmlns:xlink="http://www.w3.org/1999/xlink" x="0px" y="0px"
	 viewBox="0 0 307.1 66" style="enable-background:new 0 0 307.1 66;" xml:space="preserve">
<style type="text/css">
	.st0{fill:#02CBCB;}
</style>
<path id="Logo" class="st0" d="M1.1,20.6h9.7l0.3,7.6h0.7c0.6-2.6,2.2-5,4.4-6.5c2.5-1.3,5.2-2,8-1.8v10.5c-2.6-0.1-5.3,0.4-7.7,1.5
	c-1.9,1-3.3,2.7-3.9,4.8c-0.9,2.9-1.3,6-1.2,9.1v19.1H1.1V20.6z M64.1,46.1H40c-0.1,2.4,0.1,4.9,0.6,7.2c0.3,1.3,1.4,2.4,2.7,2.8
	c2.4,0.6,4.9,0.9,7.4,0.7c4.1,0,8.1-0.2,12.1-0.7v8.1c-2.2,0.5-4.4,0.8-6.6,1c-2.7,0.2-5.3,0.3-7.9,0.3c-4.3,0.3-8.6-0.5-12.5-2.2
	c-2.6-1.4-4.4-3.9-5.1-6.8c-0.9-4.5-1.3-9.1-1.2-13.7c-0.1-4.5,0.3-9.1,1.2-13.6c0.6-2.9,2.4-5.4,5-7c3.7-1.8,7.8-2.6,11.9-2.3
	c3.9-0.3,7.9,0.5,11.4,2.3c2.3,1.5,3.9,4,4.4,6.7c0.7,4.6,1,9.3,0.9,13.9L64.1,46.1z M47.3,28.5c-1.7-0.1-3.3,0.2-4.9,0.8
	c-1,0.6-1.8,1.7-1.9,2.9C40.1,34.4,40,36.7,40,39h14.3c0.1-2.3-0.1-4.6-0.6-6.9c-0.2-1.2-0.9-2.3-2-2.9
	C50.3,28.6,48.8,28.4,47.3,28.5z M87.6,65.5c-2.3,0-4.9-0.1-7.6-0.3c-2.8-0.2-5.2-0.5-7.3-0.9V56c4.2,0.5,8.4,0.8,12.6,0.8
	c1.6,0.1,3.3-0.1,4.9-0.4c0.9-0.1,1.6-0.6,2.1-1.4c0.4-0.9,0.5-1.9,0.5-2.9c0-1-0.1-2-0.3-2.9c-0.2-0.5-0.6-1-1.1-1.2
	c-0.9-0.3-1.9-0.5-2.9-0.6l-8.9-1.2c-2.6-0.1-5-1.4-6.5-3.6c-1.3-2.9-1.9-6.1-1.7-9.4c-0.2-2.9,0.5-5.7,1.9-8.2
	c1.3-1.9,3.2-3.3,5.4-3.9c2.8-0.8,5.8-1.2,8.7-1.1c2.3,0,4.7,0.1,7,0.4c2,0.2,4,0.5,6,1v8.1c-3.9-0.6-7.8-0.9-11.7-0.9
	c-1.5,0-3,0.1-4.5,0.3c-0.9,0.1-1.7,0.6-2.2,1.3c-0.5,0.9-0.7,2-0.6,3c0,0.9,0,1.8,0.2,2.7c0.1,0.5,0.5,0.9,1,1.2
	c0.8,0.3,1.7,0.5,2.6,0.6l9,1.1c1.7,0.2,3.3,0.7,4.7,1.5c1.3,0.9,2.3,2.2,2.8,3.7c0.8,2.5,1.1,5.1,1,7.7c0.2,3-0.4,6-1.8,8.7
	c-1.1,2-2.9,3.4-5,4.1C93.3,65.2,90.5,65.6,87.6,65.5z M128.2,65.5c-4.2,0.3-8.3-0.4-12.2-1.9c-2.5-1.3-4.2-3.7-4.8-6.4
	c-0.8-4.8-1.2-9.6-1-14.4c-0.1-4.9,0.2-9.7,1-14.5c0.5-2.7,2.3-5.1,4.8-6.4c3.9-1.5,8.1-2.2,12.2-1.9c4.1-0.3,8.3,0.4,12.1,1.9
	c2.5,1.3,4.3,3.7,4.8,6.4c0.8,4.8,1.2,9.6,1,14.5c0.1,4.8-0.2,9.7-1,14.4c-0.5,2.8-2.3,5.1-4.8,6.4
	C136.4,65.1,132.3,65.7,128.2,65.5z M128.2,56.7c1.8,0.1,3.6-0.2,5.3-0.9c1.1-0.8,1.8-2.1,1.8-3.5c0.3-3.2,0.4-6.5,0.3-9.7
	c0.1-3.3-0.1-6.5-0.3-9.7c0-1.4-0.7-2.6-1.8-3.4c-1.7-0.7-3.5-1-5.3-0.9c-1.8-0.1-3.7,0.2-5.4,0.9c-1.1,0.8-1.8,2.1-1.8,3.4
	c-0.3,3.2-0.4,6.5-0.3,9.7c-0.1,3.2,0.1,6.5,0.3,9.7c0,1.4,0.7,2.7,1.8,3.5C124.5,56.6,126.3,56.9,128.2,56.7z M155.4,64.8V0.4h10.5
	v64.4H155.4z M201.3,59.2h-0.6c-0.8,2-2.4,3.7-4.3,4.7c-2.4,1.1-4.9,1.6-7.5,1.5c-2.7,0.2-5.4-0.4-7.7-1.8c-1.8-1.3-3-3.1-3.5-5.3
	c-0.7-3.1-1-6.4-0.9-9.6V20.6H187v23.8c-0.1,2.7,0.1,5.4,0.4,8.1c0.1,1.2,0.7,2.3,1.7,2.9c1.4,0.6,3,0.8,4.5,0.7
	c1.7,0.1,3.4-0.3,4.8-1.2c1.1-0.9,1.8-2.3,2-3.7c0.4-2.6,0.5-5.2,0.5-7.8V20.6h10.4v44.2h-9.7L201.3,59.2z M225.5,64.8V29.4h-7.2
	v-8.7h7.2V7.8h10.4v12.8h8.7v8.7h-8.7v35.4H225.5z M284.5,46.1h-24.2c-0.1,2.4,0.1,4.9,0.6,7.2c0.3,1.3,1.4,2.4,2.7,2.8
	c2.4,0.6,4.9,0.9,7.4,0.7c4.1,0,8.1-0.2,12.1-0.7v8.1c-2.2,0.5-4.4,0.8-6.6,1c-2.7,0.2-5.3,0.3-7.9,0.3c-4.3,0.3-8.6-0.5-12.5-2.2
	c-2.6-1.4-4.4-3.9-5.1-6.8c-0.9-4.5-1.3-9.1-1.2-13.7c-0.1-4.5,0.3-9.1,1.2-13.6c0.6-2.9,2.4-5.4,5-7c3.7-1.8,7.8-2.6,11.9-2.3
	c3.9-0.3,7.9,0.5,11.4,2.3c2.3,1.5,3.9,4,4.4,6.7c0.7,4.6,1,9.3,0.9,13.9V46.1z M267.7,28.5c-1.7-0.1-3.3,0.2-4.9,0.8
	c-1,0.6-1.8,1.7-1.9,2.9c-0.4,2.3-0.6,4.5-0.6,6.8h14.3c0.1-2.3-0.1-4.6-0.6-6.9c-0.2-1.2-0.9-2.3-2-2.9
	C270.7,28.6,269.2,28.4,267.7,28.5z M293.6,64.8V54h11.5v10.8H293.6z"/>
</svg>
