<svg xmlns="http://www.w3.org/2000/svg" width="140.4" height="30.04" viewBox="0 0 140.4 30.04">
  <path id="Logo" d="M-70.12-20.4h4.48l.16,3.52h.32a4.97,4.97,0,0,1,2.02-3,7.073,7.073,0,0,1,3.7-.84v4.84a7.553,7.553,0,0,0-3.54.68,3.841,3.841,0,0,0-1.8,2.2,12.991,12.991,0,0,0-.54,4.2V0h-4.8ZM-41-8.64H-52.16A14.423,14.423,0,0,0-51.9-5.3a1.815,1.815,0,0,0,1.24,1.28,11.778,11.778,0,0,0,3.42.34A52.992,52.992,0,0,0-41.64-4V-.28a21.016,21.016,0,0,1-3.04.44q-1.88.16-3.64.16A12.357,12.357,0,0,1-54.1-.7a4.784,4.784,0,0,1-2.36-3.12A27.468,27.468,0,0,1-57-10.16a27.312,27.312,0,0,1,.54-6.26,5.066,5.066,0,0,1,2.3-3.22,10.776,10.776,0,0,1,5.48-1.08,10.086,10.086,0,0,1,5.26,1.04,4.53,4.53,0,0,1,2.02,3.1,37.036,37.036,0,0,1,.4,6.42Zm-7.76-8.12A5.1,5.1,0,0,0-51-16.4a1.858,1.858,0,0,0-.9,1.32,17.259,17.259,0,0,0-.26,3.16h6.6a14.027,14.027,0,0,0-.26-3.2,1.878,1.878,0,0,0-.92-1.32A4.849,4.849,0,0,0-48.76-16.76ZM-30.16.32q-1.6,0-3.52-.16t-3.36-.4v-3.8a48.341,48.341,0,0,0,5.84.36,9.371,9.371,0,0,0,2.26-.2,1.4,1.4,0,0,0,.96-.64,3.187,3.187,0,0,0,.22-1.36,4.593,4.593,0,0,0-.14-1.36.91.91,0,0,0-.5-.56,5.33,5.33,0,0,0-1.32-.28l-4.12-.56a3.715,3.715,0,0,1-2.98-1.64,9.054,9.054,0,0,1-.78-4.32,6.724,6.724,0,0,1,.9-3.8,4.582,4.582,0,0,1,2.5-1.82,13.776,13.776,0,0,1,4.04-.5,30.644,30.644,0,0,1,3.22.18,19.666,19.666,0,0,1,2.78.46v3.76a36.53,36.53,0,0,0-5.4-.4,11.3,11.3,0,0,0-2.06.14,1.469,1.469,0,0,0-1,.6,2.554,2.554,0,0,0-.3,1.38,5.54,5.54,0,0,0,.1,1.26.787.787,0,0,0,.44.54,4.6,4.6,0,0,0,1.18.28l4.16.52a6.091,6.091,0,0,1,2.18.68,3.159,3.159,0,0,1,1.28,1.7,10.512,10.512,0,0,1,.46,3.54,8,8,0,0,1-.82,4,4.13,4.13,0,0,1-2.32,1.9A12.6,12.6,0,0,1-30.16.32Zm18.72,0a12.949,12.949,0,0,1-5.64-.9,4.239,4.239,0,0,1-2.2-2.96,32.617,32.617,0,0,1-.48-6.66,32.894,32.894,0,0,1,.48-6.7,4.176,4.176,0,0,1,2.2-2.94,13.211,13.211,0,0,1,5.64-.88,13.084,13.084,0,0,1,5.6.88,4.185,4.185,0,0,1,2.2,2.96,32.934,32.934,0,0,1,.48,6.68,32.617,32.617,0,0,1-.48,6.66A4.239,4.239,0,0,1-5.84-.58,12.825,12.825,0,0,1-11.44.32Zm0-4.04A5.225,5.225,0,0,0-9-4.12a2.037,2.037,0,0,0,.84-1.6A40.653,40.653,0,0,0-8-10.2a40.59,40.59,0,0,0-.16-4.5,2.043,2.043,0,0,0-.82-1.58,5.211,5.211,0,0,0-2.46-.4,5.345,5.345,0,0,0-2.48.4,2.016,2.016,0,0,0-.84,1.58,40.59,40.59,0,0,0-.16,4.5,40.654,40.654,0,0,0,.16,4.48,2.037,2.037,0,0,0,.84,1.6A5.345,5.345,0,0,0-11.44-3.72ZM1.16,0V-29.72H6V0ZM22.32-2.56h-.28a4.268,4.268,0,0,1-2,2.18,7.586,7.586,0,0,1-3.48.7A6.33,6.33,0,0,1,13-.5a4.057,4.057,0,0,1-1.62-2.44,18.371,18.371,0,0,1-.42-4.42V-20.4h4.8v11a25.527,25.527,0,0,0,.18,3.72,1.764,1.764,0,0,0,.78,1.36A4.793,4.793,0,0,0,18.8-4a3.648,3.648,0,0,0,2.22-.54,2.7,2.7,0,0,0,.92-1.72,21.271,21.271,0,0,0,.22-3.58V-20.4h4.8V0H22.48ZM33.52,0V-16.36H30.2V-20.4h3.32v-5.92h4.8v5.92h4v4.04h-4V0ZM60.76-8.64H49.6a14.423,14.423,0,0,0,.26,3.34A1.815,1.815,0,0,0,51.1-4.02a11.778,11.778,0,0,0,3.42.34A52.992,52.992,0,0,0,60.12-4V-.28a21.016,21.016,0,0,1-3.04.44Q55.2.32,53.44.32A12.357,12.357,0,0,1,47.66-.7,4.784,4.784,0,0,1,45.3-3.82a27.468,27.468,0,0,1-.54-6.34,27.312,27.312,0,0,1,.54-6.26,5.066,5.066,0,0,1,2.3-3.22,10.776,10.776,0,0,1,5.48-1.08,10.086,10.086,0,0,1,5.26,1.04,4.53,4.53,0,0,1,2.02,3.1,37.036,37.036,0,0,1,.4,6.42ZM53-16.76a5.1,5.1,0,0,0-2.24.36,1.858,1.858,0,0,0-.9,1.32,17.259,17.259,0,0,0-.26,3.16h6.6a14.027,14.027,0,0,0-.26-3.2,1.878,1.878,0,0,0-.92-1.32A4.849,4.849,0,0,0,53-16.76ZM64.96,0V-5h5.32V0Z" transform="translate(70.12 29.72)" fill="#02cbcb"/>
</svg>
