<?xml version="1.0" encoding="utf-8"?>
<!-- Generator: Adobe Illustrator 21.0.0, SVG Export Plug-In . SVG Version: 6.00 Build 0)  -->
<svg version="1.1" id="Ebene_1" xmlns="http://www.w3.org/2000/svg" xmlns:xlink="http://www.w3.org/1999/xlink" x="0px" y="0px"
	 viewBox="0 0 312 66" style="enable-background:new 0 0 312 66;" xml:space="preserve">
<style type="text/css">
	.st0{enable-background:new    ;}
</style>
<title>InkTank</title>
<desc>Created with Sketch.</desc>
<g id="Page-1">
	<g id="Intro" transform="translate(-161.000000, -242.000000)">
		<g class="st0">
			<path d="M175.2,307h-13.4v-64.8h13.4V307z"/>
			<path d="M225.5,261.8c3.1,2.6,4.7,6.9,4.7,12.9V307h-12.8v-29.1c0-2.5-0.3-4.5-1-5.8c-1.2-2.5-3.5-3.7-7-3.7
				c-4.2,0-7.1,1.8-8.7,5.4c-0.8,1.9-1.2,4.3-1.2,7.3V307h-12.5v-47.8h12.1v7c1.6-2.5,3.1-4.2,4.6-5.3c2.6-1.9,5.8-2.9,9.8-2.9
				C218.3,258,222.3,259.3,225.5,261.8z"/>
			<path d="M241.7,242.4H254v34.9l15.8-18.1h15.6l-17.2,17.8L286,307h-15.2l-11.6-20.5l-5.2,5.4V307h-12.3V242.4z"/>
		</g>
		<g class="st0">
			<path d="M329.2,244v5.1h-18V307h-5.4v-57.9h-18V244H329.2z"/>
			<path d="M364.5,307v-6c-3.1,4.1-8.4,6.9-14.8,6.9c-3.9,0-8.2-1-12.2-3.9c-5.4-3.8-8.7-10.2-8.7-17.5c0-6.8,3-12.9,7.6-16.8
				c3.4-2.8,8.1-4.6,13-4.6c5.9,0,11.3,2.4,15,6.6V266h5v41H364.5z M364.3,278.2c-1.8-3.1-7.2-8.3-14.8-8.3c-3.4,0-7,1.2-9.9,3.5
				c-3.6,3-5.8,7.7-5.8,13c0,5.7,2.5,10.7,6.5,13.5c2.6,1.8,5.8,3.1,9.3,3.1c6,0,11.4-3.4,14.7-9V278.2z"/>
			<path d="M389.7,271.7c3.3-4.4,8.7-6.7,14.5-6.7c5.9,0,11.2,2.4,14.6,6.9c2.2,3,3.5,6.4,3.5,13.1V307h-5.1v-21.5
				c0-5.4-0.9-8-2.3-10.1c-2.3-3.4-6.2-5.5-10.7-5.5c-5.9,0-11.1,3.1-14.2,8.5V307h-5.1v-41h5V271.7z"/>
			<path d="M465.1,307l-23.3-21.7V307h-5.1v-63.9h5.1v40l21-17.1h7.6l-22.5,18.4l24.4,22.6H465.1z"/>
		</g>
	</g>
</g>
</svg>
